# xmcd
#
# Track frame offsets: 
#        150
#        19317
#        38325
#        57637
#
# Disc length: 1026 seconds
#
# Revision: 2
# Processed by: cddbd v1.4PL0 Copyright (c) Steve Scherf et al.
# Submitted via: ExactAudioCopy v0.95a3
#
DISCID=2c040004
DTITLE=Mariah Carey - Thank God I Found Jou
DYEAR=2000
DGENRE=R&B
TTITLE0=Thank God I Found You (Make It Last Remix Edit feat. Joe and N
TTITLE0=as)
TTITLE1=Thank God I Found You (Make It Last Remix Edit w/o Rap feat. J
TTITLE1=oe)
TTITLE2=Thank God I Found You (Celebratory Mix feat. Joe and 98°)
TTITLE3=Thank God I Found You (Album Version feat. Joe and 98°)
EXTD=
EXTT0=
EXTT1=
EXTT2=
EXTT3=
PLAYORDER=
